<?xml version="1.0" encoding="UTF-8" standalone="no"?>
<!-- Created with Inkscape (http://www.inkscape.org/) -->

<svg
   xmlns:dc="http://purl.org/dc/elements/1.1/"
   xmlns:cc="http://creativecommons.org/ns#"
   xmlns:rdf="http://www.w3.org/1999/02/22-rdf-syntax-ns#"
   xmlns:svg="http://www.w3.org/2000/svg"
   xmlns="http://www.w3.org/2000/svg"
   xmlns:sodipodi="http://sodipodi.sourceforge.net/DTD/sodipodi-0.dtd"
   xmlns:inkscape="http://www.inkscape.org/namespaces/inkscape"
   id="svg2985"
   version="1.1"
   inkscape:version="0.48.1 "
   width="187.5"
   height="62.5"
   xml:space="preserve"
   sodipodi:docname="logo-laspi.eps"><metadata
     id="metadata2991"><rdf:RDF><cc:Work
         rdf:about=""><dc:format>image/svg+xml</dc:format><dc:type
           rdf:resource="http://purl.org/dc/dcmitype/StillImage" /><dc:title></dc:title></cc:Work></rdf:RDF></metadata><defs
     id="defs2989"><clipPath
       clipPathUnits="userSpaceOnUse"
       id="clipPath2999"><path
         d="M 0,50 150,50 150,0 0,0 0,50 z"
         id="path3001" /></clipPath></defs><sodipodi:namedview
     pagecolor="#ffffff"
     bordercolor="#666666"
     borderopacity="1"
     objecttolerance="10"
     gridtolerance="10"
     guidetolerance="10"
     inkscape:pageopacity="0"
     inkscape:pageshadow="2"
     inkscape:window-width="1280"
     inkscape:window-height="966"
     id="namedview2987"
     showgrid="false"
     inkscape:zoom="2.7093333"
     inkscape:cx="93.75"
     inkscape:cy="31.25"
     inkscape:window-x="0"
     inkscape:window-y="0"
     inkscape:window-maximized="1"
     inkscape:current-layer="g2993" /><g
     id="g2993"
     inkscape:groupmode="layer"
     inkscape:label="log-bez-texta"
     transform="matrix(1.25,0,0,-1.25,0,62.5)"><g
       id="g2995"
       inkscape:export-filename="D:\Leshov\Work\Reklama\logo-laspi.png"
       inkscape:export-xdpi="408.5007"
       inkscape:export-ydpi="408.5007"><g
         id="g2997"
         clip-path="url(#clipPath2999)"><path
           d="m 69.925,23.338 c 0.3,1.688 0.784,3.298 1.578,4.729 1.248,2.249 3.408,5.337 6.374,6.043 1.179,0.281 2.519,0.153 2.871,-1.442 0.292,-1.322 -0.823,-3.174 -2.642,-4.451 -0.654,-0.461 -2.543,-0.915 -1.787,0.42 0.168,0.291 0.343,0.576 0.501,0.859 0.226,0.403 0.131,0.293 -0.281,0.295 -0.76,0.001 -2.03,-0.054 -2.921,-0.166 -0.283,-0.036 -0.287,0.013 -0.418,-0.239 -1.03,-2.013 -2.139,-4.107 -3.275,-6.048 M 51.226,20.903 c -0.893,1.872 -1.261,3.869 -1.023,6.041 0.413,0.999 0.821,2.254 1.351,3.208 0.152,0.369 0.752,1.492 1.343,2.233 0.459,0.576 0.785,0.816 1.465,0.263 1.134,-0.925 0.93,-3.675 0.791,-5.083 -0.085,-1.006 -0.658,-4.409 -1.666,-6.319 -1.008,-1.911 -1.409,-1.785 -2.261,-0.343 m -14.004,7.192 c -0.148,1.006 -0.057,2.396 0.42,3.291 0.21,0.396 0.295,0.432 0.333,-0.07 0.021,-0.283 -0.067,-0.564 -0.17,-1.03 -0.046,-0.22 -0.245,-1.551 -0.583,-2.191 M 51.028,17.697 c 1.284,0.453 2.471,1.096 4.19,2.498 -0.607,-1.107 -1.183,-2.451 -2.395,-2.99 -0.321,-0.142 -1.444,-0.22 -1.795,0.492 m -28.911,3.608 c 0.33,1.508 1.139,2.848 1.812,3.543 0.949,0.982 2.649,1.689 4.012,1.37 1.069,-0.25 1.172,-1.278 1.812,-2.027 0.23,-0.27 0.402,-0.218 0.193,-0.58 -0.052,-0.091 -0.133,-0.205 -0.289,-0.42 -0.195,-0.265 -0.206,-0.23 -0.519,-0.064 -1.301,0.683 -1.059,2.705 -2.811,2.368 -2.636,-0.506 -2.674,-4.663 -2.272,-6.561 0.32,-1.53 1.78,-3.67 3.563,-3.605 1.592,0.06 3.643,2.79 4.418,3.869 1.005,1.398 2.19,3.12 3.111,4.808 -0.368,1.75 -0.277,3.318 -10e-4,4.949 0.281,1.673 1.188,4.187 2.921,4.413 0.731,0.094 0.967,-0.014 1.081,-0.356 0.315,-0.926 -0.426,-3.657 -0.752,-4.552 -0.233,-0.643 -0.528,-1.293 -0.799,-1.991 0.29,-1.368 0.685,-2.501 1.299,-3.536 0.449,-0.757 1.556,-1.828 2.237,-2.244 1.647,-1.013 2.295,0.067 3.685,1.757 0.841,1.021 1.522,2.103 2.15,3.182 0.169,0.291 0.204,0.385 0.238,0.724 0.167,1.622 0.276,4.371 2.24,4.517 1.355,1.714 2.882,2.946 5.216,2.976 3.194,0.157 2.485,-7.609 1.983,-10.242 0.563,0.943 1.269,3.211 1.65,4.324 0.099,0.292 0.059,0.296 0.35,0.4 0.762,0.276 2.19,0.628 2.951,0.652 0.433,0.012 0.242,-0.069 0.073,-0.378 -0.94,-1.727 -1.428,-3.72 -1.523,-5.708 -0.092,-1.95 -0.023,-4.139 1.39,-5.673 1.038,-1.128 2.436,-1.372 3.905,-0.116 1.43,1.226 2.67,3.042 3.306,4.371 -0.807,2.394 1.977,7.466 3.287,9.216 1.553,2.071 4.196,4.04 6.27,4.557 2.474,0.618 3.881,-1.176 3.201,-3.255 -0.441,-1.351 -1.253,-2.755 -2.252,-3.727 -2.082,-2.026 -2.935,-2.001 -4.089,-1.336 -0.819,-1.407 -3.013,-4.784 -4.014,-6.2 1.576,-0.747 9.086,4.185 10.929,5.71 1.075,0.89 2.059,1.752 3.006,2.674 0.173,0.169 0.287,0.325 0.428,0.524 1.083,1.516 2.129,2.781 3.338,3.466 0.271,0.154 0.323,0.286 0.498,0.016 0.5,-0.78 1.112,-1.927 1.407,-2.584 0.137,-0.303 0.171,-0.261 -0.036,-0.516 -1.747,-2.168 -4.551,-4.354 -4.983,-7.207 1.457,1.648 3.701,4.493 5.242,6.108 1.404,1.471 2.964,2.782 4.714,3.957 0.902,0.605 1.389,0.699 1.795,-0.142 0.442,-0.911 0.755,-1.932 1.123,-2.951 0.298,-0.823 0.339,-0.846 0.132,-1.701 -0.368,-1.531 -0.843,-3.063 -1.31,-4.619 -0.45,-1.498 -0.672,-3.051 -0.704,-4.598 1.459,-0.883 3.743,1.34 4.502,2.297 1.842,2.323 3.134,4.766 4.339,7.165 0.118,0.234 0.196,0.637 0.44,0.255 0.562,-0.882 1.197,-1.95 1.346,-2.204 0.393,-0.66 0.524,-0.828 0.315,-1.494 -0.514,-1.653 -0.983,-4.009 -0.607,-5.948 0.084,-0.436 0.014,-0.491 0.464,-0.548 3.554,-0.445 5.685,4.923 6.757,7.429 0.505,1.181 1.539,3.95 2.079,5.536 0.122,0.36 0.057,0.348 0.357,0.078 0.708,-0.645 1.325,-1.378 1.946,-2.098 0.263,-0.304 0.278,-0.232 0.204,-0.623 -0.344,-1.829 -1.093,-7.269 -0.066,-8.408 1.818,-0.077 3.106,1.135 4.074,2.663 1.022,1.615 1.692,3.347 2.295,5.108 0.504,-0.619 1.893,-2.051 2.503,-2.636 l 0.02,-0.022 c -0.373,-0.837 -0.713,-1.567 -0.904,-1.927 -0.647,-1.215 -1.518,-2.954 -2.708,-4.113 -1.119,-1.094 -2.548,-1.729 -4.287,-0.826 -1.256,0.651 -2.712,1.71 -3.745,2.587 -1.322,-2.61 -4.265,-6.641 -7.008,-5.376 -1.798,0.828 -3.244,2.627 -4.306,4.258 -0.091,-0.114 -2.706,-2.962 -4.02,-3.487 -2.142,-0.856 -3.98,-0.252 -5.097,2.33 -1.42,3.278 -0.1,6.723 0.642,9.869 -4.834,-3.952 -4.713,-5.175 -8.777,-9.316 -0.75,-0.766 -1.731,-1.398 -2.596,-0.65 -0.911,0.789 -1.566,2.316 -1.983,3.297 -2.044,-1.318 -4.269,-2.47 -6.54,-3.138 -2.518,-0.742 -3.921,-0.4 -6.188,0.77 -1.362,-1.282 -2.519,-2.48 -4.222,-3.345 -1.356,-0.688 -2.977,-1.192 -4.44,-0.705 -2.244,0.743 -2.82,4.108 -3.16,5.775 -1.997,-2.704 -3.45,-3.946 -5.524,-4.917 -2.777,-1.3 -4.182,0.04 -4.855,1.77 -0.327,0.846 -0.692,2.106 -0.902,4.726 -0.995,-1.056 -2.21,-2.328 -3.528,-3.171 -1.543,-0.984 -2.604,-1.594 -4.368,-0.926 -1.579,0.599 -2.896,1.91 -3.573,3.64 -1.256,-1.976 -3.273,-4.979 -5.529,-6.854 -1.456,-1.21 -3.653,-2.284 -5.468,-1.393 -1.196,0.588 -2.164,1.956 -2.478,3.33 -0.236,1.023 -0.341,2.188 -0.016,3.68"
           style="fill:#190c80;fill-opacity:1;fill-rule:evenodd;stroke:none"
           id="path3003" /><path
           d="m 74.612,35.115 c 0,-3.11 -2.534,-5.643 -5.643,-5.643 -3.109,0 -5.644,2.533 -5.644,5.643 0,3.108 2.535,5.642 5.644,5.642 3.109,0 5.643,-2.534 5.643,-5.642"
           style="fill:#ff7919;fill-opacity:1;fill-rule:evenodd;stroke:none"
           id="path3005" /></g></g></g></svg>